<svg width="93" height="87" viewBox="0 0 93 87" fill="none" xmlns="http://www.w3.org/2000/svg">
<mask id="path-1-outside-1_9_45" maskUnits="userSpaceOnUse" x="0.333344" y="0" width="93" height="87" fill="black">
<rect fill="white" x="0.333344" width="93" height="87"/>
<path d="M73.2605 46.463L78.0556 51.1253V78.4703C78.0556 80.615 77.3172 82.4053 75.8402 83.8413C74.3633 85.2773 72.5188 85.9969 70.3067 86H9.08229C6.87333 86 5.0304 85.282 3.55349 83.846C2.07659 82.41 1.33654 80.6181 1.33334 78.4703V18.9315C1.33334 16.7868 2.07339 14.9965 3.55349 13.5605C5.03359 12.1245 6.87493 11.4049 9.0775 11.4018H34.8082C34.5365 12.2628 34.3495 13.0709 34.2472 13.8262C34.1449 14.5815 34.0426 15.3275 33.9403 16.0642H9.0775C8.34224 16.0642 7.66613 16.3626 7.04915 16.9594C6.43218 17.5561 6.12529 18.2151 6.12848 18.9362V78.4703C6.12848 79.1852 6.43537 79.8425 7.04915 80.4424C7.66293 81.0423 8.33904 81.3407 9.0775 81.3376H70.3115C71.0467 81.3376 71.7228 81.0392 72.3398 80.4424C72.9568 79.8457 73.2637 79.1883 73.2605 78.4703V46.463ZM75.4375 28.8671L91.3333 44.3276L87.9432 47.6239L72.0425 32.1681C70.6104 33.3989 68.9512 34.3112 67.0651 34.9049C65.1791 35.4986 63.2482 35.7938 61.2726 35.7907C56.2633 35.7907 52.0292 34.1092 48.5703 30.746C45.1114 27.3829 43.3819 23.266 43.3819 18.3954C43.3819 13.5247 45.1114 9.40784 48.5703 6.0447C52.0292 2.68157 56.2633 1 61.2726 1C66.2819 1 70.516 2.68157 73.9749 6.0447C77.4338 9.40784 79.1633 13.5247 79.1633 18.3954C79.1633 20.4934 78.8276 22.4159 78.1563 24.1627C77.485 25.9065 76.5787 27.4715 75.4375 28.8671ZM61.2726 31.1237C64.9361 31.1237 68.0354 29.8928 70.5704 27.4311C73.1054 24.9693 74.3697 21.9574 74.3633 18.3954C74.3569 14.8333 73.0894 11.8198 70.5608 9.355C68.0322 6.89015 64.9361 5.66083 61.2726 5.66705C57.6091 5.67327 54.5099 6.90569 51.9748 9.36433C49.4398 11.823 48.1755 14.8333 48.1819 18.3954C48.1883 21.9574 49.4542 24.9709 51.9796 27.4357C54.5051 29.9006 57.6043 31.1315 61.2774 31.1284M6.12848 46.4583V81.3376V16.0642V45.1109V43.8054V46.4583Z"/>
</mask>
<path d="M73.2605 46.463L78.0556 51.1253V78.4703C78.0556 80.615 77.3172 82.4053 75.8402 83.8413C74.3633 85.2773 72.5188 85.9969 70.3067 86H9.08229C6.87333 86 5.0304 85.282 3.55349 83.846C2.07659 82.41 1.33654 80.6181 1.33334 78.4703V18.9315C1.33334 16.7868 2.07339 14.9965 3.55349 13.5605C5.03359 12.1245 6.87493 11.4049 9.0775 11.4018H34.8082C34.5365 12.2628 34.3495 13.0709 34.2472 13.8262C34.1449 14.5815 34.0426 15.3275 33.9403 16.0642H9.0775C8.34224 16.0642 7.66613 16.3626 7.04915 16.9594C6.43218 17.5561 6.12529 18.2151 6.12848 18.9362V78.4703C6.12848 79.1852 6.43537 79.8425 7.04915 80.4424C7.66293 81.0423 8.33904 81.3407 9.0775 81.3376H70.3115C71.0467 81.3376 71.7228 81.0392 72.3398 80.4424C72.9568 79.8457 73.2637 79.1883 73.2605 78.4703V46.463ZM75.4375 28.8671L91.3333 44.3276L87.9432 47.6239L72.0425 32.1681C70.6104 33.3989 68.9512 34.3112 67.0651 34.9049C65.1791 35.4986 63.2482 35.7938 61.2726 35.7907C56.2633 35.7907 52.0292 34.1092 48.5703 30.746C45.1114 27.3829 43.3819 23.266 43.3819 18.3954C43.3819 13.5247 45.1114 9.40784 48.5703 6.0447C52.0292 2.68157 56.2633 1 61.2726 1C66.2819 1 70.516 2.68157 73.9749 6.0447C77.4338 9.40784 79.1633 13.5247 79.1633 18.3954C79.1633 20.4934 78.8276 22.4159 78.1563 24.1627C77.485 25.9065 76.5787 27.4715 75.4375 28.8671ZM61.2726 31.1237C64.9361 31.1237 68.0354 29.8928 70.5704 27.4311C73.1054 24.9693 74.3697 21.9574 74.3633 18.3954C74.3569 14.8333 73.0894 11.8198 70.5608 9.355C68.0322 6.89015 64.9361 5.66083 61.2726 5.66705C57.6091 5.67327 54.5099 6.90569 51.9748 9.36433C49.4398 11.823 48.1755 14.8333 48.1819 18.3954C48.1883 21.9574 49.4542 24.9709 51.9796 27.4357C54.5051 29.9006 57.6043 31.1315 61.2774 31.1284M6.12848 46.4583V81.3376V16.0642V45.1109V43.8054V46.4583Z" fill="#B4B4B4"/>
<path d="M73.2605 46.463L73.9576 45.746L72.2605 44.0959V46.463H73.2605ZM78.0556 51.1253H79.0556V50.7029L78.7527 50.4084L78.0556 51.1253ZM70.3067 86V87L70.3081 87L70.3067 86ZM1.33334 78.4703H0.333342L0.333345 78.4717L1.33334 78.4703ZM9.0775 11.4018V10.4018L9.07608 10.4018L9.0775 11.4018ZM34.8082 11.4018L35.7619 11.7028L36.1724 10.4018H34.8082V11.4018ZM33.9403 16.0642V17.0642H34.811L34.9308 16.2017L33.9403 16.0642ZM6.12848 18.9362H7.12849L7.12847 18.9318L6.12848 18.9362ZM9.0775 81.3376V80.3376L9.07329 80.3376L9.0775 81.3376ZM73.2605 78.4703H72.2605L72.2605 78.4747L73.2605 78.4703ZM75.4375 28.8671L74.6633 28.2341L74.0826 28.9443L74.7402 29.584L75.4375 28.8671ZM91.3333 44.3276L92.0305 45.0445L92.7677 44.3277L92.0306 43.6107L91.3333 44.3276ZM87.9432 47.6239L87.2462 48.341L87.9433 49.0186L88.6403 48.3408L87.9432 47.6239ZM72.0425 32.1681L72.7395 31.451L72.084 30.8138L71.3907 31.4097L72.0425 32.1681ZM61.2726 35.7907L61.2742 34.7907H61.2726V35.7907ZM79.1633 18.3954H78.1633H79.1633ZM78.1563 24.1627L79.0895 24.522L79.0897 24.5215L78.1563 24.1627ZM72.5633 47.1799L77.3585 51.8423L78.7527 50.4084L73.9576 45.746L72.5633 47.1799ZM77.0556 51.1253V78.4703H79.0556V51.1253H77.0556ZM77.0556 78.4703C77.0556 80.3573 76.4176 81.8851 75.1431 83.1244L76.5374 84.5583C78.2167 82.9255 79.0556 80.8726 79.0556 78.4703H77.0556ZM75.1431 83.1244C73.8672 84.365 72.2787 84.9972 70.3053 85L70.3081 87C72.7589 86.9966 74.8595 86.1897 76.5374 84.5583L75.1431 83.1244ZM70.3067 85H9.08229V87H70.3067V85ZM9.08229 85C7.11293 85 5.52648 84.3696 4.25061 83.129L2.85638 84.5629C4.53432 86.1944 6.63373 87 9.08229 87V85ZM4.25061 83.129C2.97601 81.8897 2.33616 80.3599 2.33334 78.4688L0.333345 78.4717C0.336923 80.8762 1.17717 82.9302 2.85638 84.5629L4.25061 83.129ZM2.33334 78.4703V18.9315H0.333344V78.4703H2.33334ZM2.33334 18.9315C2.33334 17.0452 2.97238 15.5176 4.24983 14.2782L2.85716 12.8428C1.17441 14.4754 0.333344 16.5285 0.333344 18.9315H2.33334ZM4.24983 14.2782C5.53017 13.036 7.11637 12.4046 9.07891 12.4018L9.07608 10.4018C6.63348 10.4052 4.53701 11.2129 2.85716 12.8428L4.24983 14.2782ZM9.0775 12.4018H34.8082V10.4018H9.0775V12.4018ZM33.8546 11.1008C33.5687 12.0066 33.3674 12.871 33.2562 13.692L35.2381 13.9604C35.3315 13.2709 35.5043 12.519 35.7619 11.7028L33.8546 11.1008ZM33.2562 13.692C33.1541 14.4462 33.0519 15.1911 32.9498 15.9266L34.9308 16.2017C35.0333 15.4639 35.1357 14.7168 35.2381 13.9604L33.2562 13.692ZM33.9403 15.0642H9.0775V17.0642H33.9403V15.0642ZM9.0775 15.0642C8.03959 15.0642 7.12383 15.4959 6.3539 16.2406L7.7444 17.6781C8.20842 17.2293 8.64489 17.0642 9.0775 17.0642V15.0642ZM6.3539 16.2406C5.58132 16.9879 5.12386 17.8956 5.12849 18.9406L7.12847 18.9318C7.12671 18.5345 7.28303 18.1244 7.7444 17.6781L6.3539 16.2406ZM5.12848 18.9362V78.4703H7.12848V18.9362H5.12848ZM5.12848 78.4703C5.12848 79.5073 5.58535 80.4101 6.35018 81.1576L7.74812 79.7273C7.28539 79.275 7.12848 78.863 7.12848 78.4703H5.12848ZM6.35018 81.1576C7.11897 81.909 8.03791 82.342 9.0817 82.3376L9.07329 80.3376C8.64018 80.3394 8.20689 80.1757 7.74812 79.7273L6.35018 81.1576ZM9.0775 82.3376H70.3115V80.3376H9.0775V82.3376ZM70.3115 82.3376C71.3493 82.3376 72.2651 81.906 73.035 81.1612L71.6445 79.7237C71.1805 80.1725 70.7441 80.3376 70.3115 80.3376V82.3376ZM73.035 81.1612C73.8066 80.4149 74.2651 79.5089 74.2605 78.4658L72.2605 78.4747C72.2622 78.8676 72.1069 79.2764 71.6445 79.7237L73.035 81.1612ZM74.2605 78.4703V46.463H72.2605V78.4703H74.2605ZM74.7402 29.584L90.6361 45.0444L92.0306 43.6107L76.1347 28.1502L74.7402 29.584ZM90.6362 43.6106L87.2461 46.9069L88.6403 48.3408L92.0305 45.0445L90.6362 43.6106ZM88.6402 46.9068L72.7395 31.451L71.3455 32.8851L87.2462 48.341L88.6402 46.9068ZM71.3907 31.4097C70.0661 32.5481 68.528 33.3961 66.7649 33.951L67.3654 35.8588C69.3745 35.2264 71.1546 34.2498 72.6943 32.9265L71.3907 31.4097ZM66.7649 33.951C64.9764 34.514 63.1473 34.7937 61.2742 34.7907L61.271 36.7907C63.3491 36.794 65.3817 36.4831 67.3654 35.8588L66.7649 33.951ZM61.2726 34.7907C56.5126 34.7907 52.5318 33.2031 49.2674 30.0291L47.8732 31.463C51.5265 35.0152 56.014 36.7907 61.2726 36.7907V34.7907ZM49.2674 30.0291C46.0042 26.8562 44.3819 22.9989 44.3819 18.3954H42.3819C42.3819 23.5332 44.2185 27.9096 47.8732 31.463L49.2674 30.0291ZM44.3819 18.3954C44.3819 13.7919 46.0042 9.93449 49.2674 6.76167L47.8732 5.32774C44.2185 8.88119 42.3819 13.2576 42.3819 18.3954H44.3819ZM49.2674 6.76167C52.5318 3.58762 56.5126 2 61.2726 2V0C56.014 0 51.5265 1.77552 47.8732 5.32774L49.2674 6.76167ZM61.2726 2C66.0327 2 70.0134 3.58762 73.2778 6.76167L74.6721 5.32774C71.0187 1.77552 66.5312 0 61.2726 0V2ZM73.2778 6.76167C76.541 9.93449 78.1633 13.7919 78.1633 18.3954H80.1633C80.1633 13.2576 78.3267 8.88119 74.6721 5.32774L73.2778 6.76167ZM78.1633 18.3954C78.1633 20.3856 77.8452 22.1847 77.2229 23.804L79.0897 24.5215C79.8101 22.6471 80.1633 20.6013 80.1633 18.3954H78.1633ZM77.2231 23.8035C76.5888 25.4509 75.7355 26.923 74.6633 28.2341L76.2116 29.5001C77.422 28.02 78.3811 26.3621 79.0895 24.522L77.2231 23.8035ZM61.2726 32.1237C65.1856 32.1237 68.5379 30.7987 71.267 28.1485L69.8737 26.7137C67.5328 28.9869 64.6866 30.1237 61.2726 30.1237V32.1237ZM71.267 28.1485C73.9982 25.4963 75.3702 22.2241 75.3633 18.3936L73.3633 18.3972C73.3693 21.6908 72.2126 24.4424 69.8737 26.7137L71.267 28.1485ZM75.3633 18.3936C75.3565 14.5651 73.982 11.2934 71.2588 8.63892L69.8628 10.0711C72.1969 12.3463 73.3574 15.1015 73.3633 18.3972L75.3633 18.3936ZM71.2588 8.63892C68.5353 5.98416 65.1849 4.66041 61.2709 4.66705L61.2743 6.66705C64.6873 6.66126 67.529 7.79614 69.8628 10.0711L71.2588 8.63892ZM61.2709 4.66705C57.3589 4.67369 54.0074 5.99994 51.2786 8.64648L52.671 10.0822C55.0123 7.81144 57.8594 6.67284 61.2743 6.66705L61.2709 4.66705ZM51.2786 8.64648C48.5471 11.2957 47.175 14.5666 47.1819 18.3972L49.1819 18.3936C49.176 15.1 50.3325 12.3502 52.671 10.0822L51.2786 8.64648ZM47.1819 18.3972C47.1887 22.2252 48.5613 25.4968 51.2812 28.1514L52.6781 26.7201C50.347 24.445 49.1878 21.6897 49.1819 18.3936L47.1819 18.3972ZM51.2812 28.1514C54.0019 30.8069 57.3557 32.1317 61.2783 32.1284L61.2766 30.1284C57.8529 30.1313 55.0082 28.9943 52.6781 26.7201L51.2812 28.1514ZM5.12848 46.4583V81.3376H7.12848V46.4583H5.12848ZM7.12848 81.3376V16.0642H5.12848V81.3376H7.12848ZM5.12848 16.0642V45.1109H7.12848V16.0642H5.12848ZM7.12848 45.1109V43.8054H5.12848V45.1109H7.12848ZM5.12848 43.8054V46.4583H7.12848V43.8054H5.12848Z" fill="#B4B4B4" mask="url(#path-1-outside-1_9_45)"/>
</svg>
